<?xml version="1.0" encoding="utf-8"?>
<!-- Generator: Adobe Illustrator 19.0.0, SVG Export Plug-In . SVG Version: 6.00 Build 0)  -->
<!DOCTYPE svg PUBLIC "-//W3C//DTD SVG 1.1//EN" "http://www.w3.org/Graphics/SVG/1.1/DTD/svg11.dtd">
<svg version="1.1" id="Layer_1" xmlns="http://www.w3.org/2000/svg" xmlns:xlink="http://www.w3.org/1999/xlink" x="0px" y="0px"
	 viewBox="0 0 1500 410" enable-background="new 0 0 1500 410" xml:space="preserve">
<g>
	<path fill="#166DB7" d="M550.4,234.4c2.6,3.8,4.8,7.1,6.9,9.8c2,2.7,4,4.9,5.9,6.7c1.9,1.7,3.9,3,6,3.8c2.1,0.8,4.4,1.3,7,1.4v15.2
		h-38c-2.7-2-5.5-4.8-8.2-8.6c-2.8-3.8-5.7-8.2-8.8-13.2l-16.9-27.6c-2-3.2-3.7-5.8-5.3-7.9c-1.6-2.1-3-4-4.4-5.6
		c-1.3,0.1-2.4,0.1-3.4,0.1c-1,0-2,0-2.9,0c-0.9,0-1.8,0-2.8,0c-0.9,0-2,0-3.1-0.1v24.9c0,4.2-0.1,8.3-0.2,12.1
		c-0.2,3.9-0.4,6.8-0.7,8.7l19.6-0.7v17.8h-68.6v-15.2c2.6-0.2,4.9-0.4,6.9-0.7c2.1-0.3,3.8-1.2,5.2-2.5c1.4-1.3,2.5-3.3,3.2-5.9
		c0.8-2.6,1.1-6.3,1.1-10.9v-88.5c0-2.1,0-4.2,0.1-6.2c0-2,0.1-4,0.2-5.8c0.1-1.8,0.2-3.5,0.3-5s0.2-2.7,0.4-3.7l-17.4,0.7v-17.8
		l65.7-0.5c10,0,19,0.8,27.1,2.5c8.1,1.7,15,4.4,20.8,8.2c5.8,3.8,10.2,8.7,13.3,14.8c3.1,6.1,4.6,13.6,4.6,22.4
		c0.1,5.1-0.7,10.1-2.4,14.8c-1.7,4.8-4.2,9.2-7.5,13.1c-3.3,4-7.6,7.6-12.6,10.7c-5.1,3.2-11.1,5.7-18,7.7v0.2
		c2.9,1.1,5.7,3,8.6,5.8c2.9,2.7,5.3,5.6,7.3,8.7L550.4,234.4z M493.7,191.8c6.4,0,11.8-0.7,16.4-2.1c4.5-1.4,8.2-3.5,11.1-6.4
		c2.9-2.9,5-6.5,6.3-10.9c1.4-4.4,2-9.5,2-15.3c0-5-0.6-9.2-1.7-12.7c-1.1-3.5-2.6-6.4-4.4-8.7c-1.8-2.3-3.9-4.2-6.1-5.5
		c-2.3-1.4-4.6-2.4-6.9-3.1c-2.3-0.7-4.6-1.2-6.7-1.4c-2.1-0.2-4-0.3-5.6-0.3c-2.5,0-4.7,0.2-6.6,0.6c-1.9,0.4-3.5,1.2-4.8,2.5
		c-1.3,1.3-2.3,3.1-3,5.5c-0.7,2.4-1.1,5.6-1.1,9.7V191c1.8,0.2,3.6,0.4,5.5,0.6C489.8,191.7,491.7,191.8,493.7,191.8z"/>
	<path fill="#166DB7" d="M693.2,209.2l-75.9,1.4c0,6.3,0.6,12.2,1.7,17.5c1.2,5.4,3,10,5.6,13.9c2.6,3.9,5.9,6.9,10,9.1
		c4.1,2.2,9.2,3.3,15.2,3.3c2.3,0,4.9-0.3,7.8-0.9c2.9-0.6,5.8-1.6,8.7-2.9c3-1.4,6-3.1,9-5.4c3-2.2,5.8-4.9,8.5-8.2l10.4,9.8
		c-4.1,5.9-8.5,10.8-13.2,14.4c-4.7,3.7-9.3,6.5-14,8.6c-4.7,2-9.3,3.4-13.9,4.1c-4.5,0.7-8.8,1.1-12.7,1.1
		c-8.5,0-16.2-1.4-23.2-4.3c-7-2.9-13-7-18-12.3c-5-5.3-8.9-11.8-11.7-19.3c-2.7-7.5-4.1-16-4.1-25.4c0-8.1,1.4-15.9,4.1-23.3
		c2.7-7.4,6.6-14,11.7-19.7c5-5.7,11.1-10.3,18.2-13.6c7.1-3.4,15-5.1,23.7-5.1c4.3,0,8.6,0.4,12.8,1.1c4.2,0.8,8.3,2,12.2,3.8
		c3.9,1.8,7.5,4.1,10.8,6.9c3.3,2.9,6.2,6.4,8.6,10.6c2.4,4.2,4.3,9.2,5.7,14.9C692.6,195.1,693.3,201.7,693.2,209.2z M642.2,168.3
		c-3.4,0-6.4,0.6-9.1,1.9c-2.7,1.3-5,3-6.9,5.3c-2,2.3-3.6,5-4.8,8.2c-1.2,3.2-2.1,6.7-2.6,10.5h42.5c-0.2-4.7-0.7-8.8-1.7-12.1
		c-1-3.3-2.3-6-4-8.1c-1.7-2.1-3.7-3.6-5.9-4.5C647.4,168.8,644.9,168.3,642.2,168.3z"/>
	<path fill="#166DB7" d="M725.9,233.2c0.3,3.5,1.4,6.8,3.4,9.9c2,3.1,4.5,5.8,7.7,8c3.2,2.3,6.9,4,11.1,5.3
		c4.2,1.3,8.8,1.9,13.7,1.9c1.9,0,3.8-0.2,5.7-0.7c1.9-0.5,3.6-1.1,5.1-2.1c1.5-0.9,2.7-2.1,3.7-3.6c0.9-1.4,1.4-3.2,1.4-5.2
		c0-2.2-0.6-4-1.7-5.6c-1.2-1.5-2.9-3-5.1-4.3c-2.3-1.3-5.1-2.6-8.4-3.9c-3.3-1.3-7.2-2.8-11.6-4.5c-4.8-1.9-9.7-3.8-14.5-5.8
		c-4.9-2-9.3-4.4-13.3-7.3c-4-2.9-7.2-6.4-9.8-10.5c-2.5-4.2-3.8-9.4-3.8-15.6c0-4.4,0.8-8.9,2.5-13.3c1.7-4.4,4.3-8.4,7.8-12
		c3.5-3.5,8-6.4,13.5-8.6c5.5-2.2,12-3.3,19.6-3.3c2.1,0,4.4,0.2,6.8,0.5c2.4,0.3,4.9,0.8,7.4,1.4c2.5,0.6,4.9,1.4,7.2,2.4
		c2.3,1,4.4,2.1,6.3,3.5h0.2l-0.3-6.5h17.6v40.8h-14.9c-0.7-4-1.9-7.6-3.8-10.8c-1.8-3.2-4.2-5.9-6.9-8.1c-2.8-2.2-6-3.9-9.5-5.1
		c-3.6-1.2-7.4-1.8-11.6-1.8c-2,0-3.9,0.2-5.7,0.7c-1.8,0.5-3.5,1.2-4.9,2.1c-1.4,1-2.6,2.2-3.4,3.8c-0.8,1.5-1.2,3.4-1.2,5.7
		c0,2.7,0.7,4.9,2.1,6.7c1.4,1.8,3.4,3.3,6,4.6c2.6,1.3,5.5,2.5,9,3.6s7.1,2.3,11.1,3.7c5.9,2,11.3,4.2,16.2,6.7
		c5,2.4,9.2,5.2,12.9,8.4c3.6,3.2,6.4,6.8,8.5,10.9c2.1,4.1,3.1,8.9,3.1,14.3c0,6-1.2,11.3-3.6,15.7c-2.4,4.5-5.5,8.2-9.4,11.1
		c-3.9,2.9-8.4,5.1-13.4,6.6c-5,1.5-10.3,2.2-15.7,2.2c-3.3,0-6.6-0.2-9.9-0.7c-3.3-0.5-6.5-1.1-9.5-1.9c-3-0.8-5.8-1.7-8.3-2.9
		c-2.5-1.1-4.7-2.4-6.5-3.7h-0.2l0.8,7h-17.6l-0.9-39.7H725.9z"/>
	<path fill="#166DB7" d="M877.8,152.1c8.3,0,16,1.4,23.1,4.1c7.1,2.7,13.3,6.6,18.4,11.7c5.2,5.1,9.3,11.3,12.2,18.7
		c3,7.3,4.5,15.6,4.5,24.9c0,9.7-1.4,18.5-4.2,26.3c-2.8,7.9-6.8,14.5-11.8,20.1c-5.1,5.5-11.1,9.8-18.2,12.7
		c-7.1,3-14.8,4.5-23.2,4.5c-8.3,0-16.1-1.4-23.3-4.1s-13.4-6.7-18.7-11.7c-5.3-5.1-9.4-11.2-12.4-18.5c-3-7.3-4.5-15.4-4.5-24.5
		c0-9.5,1.5-18.3,4.6-26.2s7.3-14.6,12.6-20.2c5.3-5.6,11.5-9.9,18.6-13C862.4,153.6,869.9,152.1,877.8,152.1z M877.4,168.3
		c-4.5,0.2-8.3,1.5-11.3,3.9c-3,2.4-5.5,5.6-7.3,9.5c-1.9,3.9-3.2,8.3-4,13.3c-0.8,4.9-1.2,9.9-1.2,15c0,5.9,0.5,11.8,1.4,17.7
		c0.9,5.8,2.4,11,4.5,15.6c2.1,4.6,4.7,8.3,8,11.2c3.3,2.9,7.2,4.3,11.9,4.3c4.6-0.1,8.3-1.4,11.2-3.8c2.9-2.5,5.2-5.7,6.9-9.7
		c1.7-4,2.9-8.4,3.5-13.3c0.6-4.9,1-9.8,1-14.8c0-5.7-0.4-11.5-1.2-17.3c-0.8-5.8-2.1-11.1-4.1-15.8c-1.9-4.7-4.4-8.5-7.6-11.4
		C886,169.8,882.1,168.3,877.4,168.3z"/>
	<path fill="#166DB7" d="M1071.7,234.2c0,1.1,0,2.5-0.1,4.1c0,1.6-0.1,3.3-0.2,5.1c-0.1,1.8-0.2,3.7-0.3,5.6
		c-0.1,1.9-0.2,3.7-0.4,5.5l15-0.7v17.6h-60.6v-15c3.2,0,5.8-0.5,7.6-1.5c1.8-1,3.2-2.4,4.1-4.2c0.9-1.8,1.5-4,1.7-6.5
		c0.2-2.5,0.3-5.3,0.3-8.4l-0.1-32.9c-0.1-10.1-1.6-17.6-4.6-22.3c-3-4.7-7.7-7.1-14.1-7.1c-4,0-7.8,0.8-11.6,2.5
		c-3.7,1.7-6.9,3.6-9.5,6v52.3c0,1.1,0,2.5-0.1,4.1c0,1.6-0.1,3.3-0.2,5.1c-0.1,1.8-0.2,3.7-0.3,5.6c-0.1,1.9-0.2,3.7-0.4,5.5
		l15-0.7v17.6h-60.6v-15c3.2,0,5.8-0.5,7.6-1.5c1.8-1,3.2-2.4,4.1-4.2c0.9-1.8,1.5-4,1.7-6.5c0.2-2.5,0.3-5.3,0.3-8.4v-38.9
		c0-2.8,0.1-5.9,0.2-9.3c0.1-3.4,0.4-6.9,0.7-10.3l-16.2,0.7v-17.4c5.3,0,10.1-0.2,14.2-0.7c4.1-0.5,7.6-1,10.5-1.7
		c2.9-0.7,5.2-1.4,7-2.2c1.8-0.8,3.1-1.6,3.9-2.3h11.4l1,11.4h0.3c2.3-1.7,4.8-3.4,7.7-5c2.9-1.6,5.9-2.9,8.9-4.1
		c3-1.2,6-2.1,8.9-2.8c2.9-0.7,5.5-1,7.8-1c7.1,0,13.1,1,18,3c4.9,2,8.9,5.1,12.1,9.2c3.1,4.1,5.4,9.4,6.8,15.9
		c1.4,6.5,2.1,14.1,2.1,23V234.2z"/>
	<path fill="#166DB7" d="M1102.1,182.6c0-4.5,1.3-8.6,3.8-12.4c2.5-3.8,6-7,10.4-9.6c4.4-2.7,9.6-4.7,15.5-6.2
		c5.9-1.5,12.3-2.2,19.1-2.2c6.8,0,12.8,0.9,18.1,2.6c5.3,1.7,9.8,4.4,13.4,8c3.6,3.6,6.4,8.2,8.3,13.8c1.9,5.6,2.9,12.2,2.9,19.9
		c0,3.9,0,7.3-0.1,10.3c0,3-0.1,5.8-0.1,8.6c0,2.7,0,5.6-0.1,8.6c0,3-0.1,6.5-0.1,10.4c0,1.1,0,2.5-0.1,4.1c0,1.6-0.1,3.3-0.1,5.1
		c0,1.8-0.1,3.7-0.2,5.6c-0.1,1.9-0.2,3.7-0.4,5.5l14.9-0.7v17.6h-43.6c-0.3-2.2-0.5-4-0.6-5.5c-0.1-1.5-0.2-3.2-0.3-5.1h-0.2
		c-5.3,5.3-10.8,9-16.5,11.1s-11.6,3.2-17.7,3.2c-5,0-9.4-0.8-13.3-2.3c-3.9-1.5-7.2-3.7-9.9-6.5c-2.7-2.8-4.7-6-6.1-9.8
		c-1.4-3.7-2.1-7.8-2.1-12.2c0-4.9,0.9-9.3,2.6-13.2c1.7-3.9,4.1-7.4,7.2-10.5c3-3.1,6.6-5.8,10.8-8c4.1-2.3,8.6-4.1,13.4-5.6
		c4.8-1.5,9.8-2.7,14.9-3.5c5.2-0.8,10.4-1.4,15.6-1.6v-12.1c0-3.1-0.3-5.9-0.8-8.5c-0.5-2.6-1.4-4.8-2.7-6.7
		c-1.3-1.9-3-3.3-5.1-4.4c-2.1-1.1-4.7-1.5-7.9-1.5c-3.2,0.2-6.1,0.8-8.8,1.9c-2.7,1.1-5,2.7-7,4.7c1.2,1.3,2,2.7,2.3,4.4
		s0.5,3,0.5,4.2c0,1.7-0.3,3.3-0.9,5c-0.6,1.7-1.5,3.2-2.8,4.6c-1.3,1.4-2.9,2.5-4.8,3.4c-2,0.9-4.3,1.4-7,1.4
		c-2.3-0.1-4.3-0.5-6.1-1.4c-1.8-0.9-3.3-2-4.5-3.4c-1.2-1.4-2.1-3-2.8-4.9C1102.4,186.8,1102.1,184.7,1102.1,182.6z M1161.3,218.1
		c-4.4,0.5-8.5,1.2-12.3,2.4c-3.8,1.1-7.2,2.6-10,4.5c-2.8,1.9-5,4.1-6.7,6.6c-1.6,2.6-2.4,5.5-2.4,8.8c0.1,2.2,0.5,4,1.2,5.5
		c0.7,1.5,1.7,2.8,2.9,3.7c1.2,1,2.5,1.7,4.1,2.2c1.5,0.5,3.1,0.7,4.8,0.7c3.6,0,7-0.8,10-2.3c3.1-1.5,5.8-3.6,8.2-6.2L1161.3,218.1
		z"/>
	<path fill="#166DB7" d="M1339.7,234.2c0,1.1,0,2.5-0.1,4.1s-0.1,3.3-0.2,5.1c-0.1,1.8-0.2,3.7-0.3,5.6c-0.1,1.9-0.2,3.7-0.4,5.5
		l15-0.7v17.6h-60.6v-15c3.2,0,5.8-0.5,7.6-1.5c1.8-1,3.2-2.4,4.1-4.2c0.9-1.8,1.5-4,1.7-6.5c0.2-2.5,0.3-5.3,0.3-8.4l-0.1-32.9
		c-0.1-10.1-1.6-17.6-4.6-22.3c-3-4.7-7.7-7.1-14.1-7.1c-4,0-7.8,0.8-11.6,2.5c-3.7,1.7-6.9,3.6-9.5,6v52.3c0,1.1,0,2.5-0.1,4.1
		c0,1.6-0.1,3.3-0.2,5.1c-0.1,1.8-0.2,3.7-0.3,5.6c-0.1,1.9-0.2,3.7-0.4,5.5l15-0.7v17.6h-60.6v-15c3.2,0,5.8-0.5,7.6-1.5
		c1.8-1,3.2-2.4,4.1-4.2c0.9-1.8,1.5-4,1.7-6.5c0.2-2.5,0.3-5.3,0.3-8.4v-38.9c0-2.8,0.1-5.9,0.2-9.3c0.1-3.4,0.4-6.9,0.7-10.3
		l-16.2,0.7v-17.4c5.3,0,10.1-0.2,14.2-0.7c4.1-0.5,7.6-1,10.5-1.7c2.9-0.7,5.2-1.4,7-2.2c1.8-0.8,3.1-1.6,3.9-2.3h11.4l1,11.4h0.3
		c2.3-1.7,4.8-3.4,7.7-5c2.9-1.6,5.9-2.9,8.9-4.1c3-1.2,6-2.1,8.9-2.8c2.9-0.7,5.5-1,7.8-1c7.1,0,13.1,1,18,3c4.9,2,9,5.1,12.1,9.2
		c3.1,4.1,5.4,9.4,6.8,15.9c1.4,6.5,2.1,14.1,2.1,23V234.2z"/>
	<path fill="#166DB7" d="M1360.6,155.8c4-0.1,7.7-1.1,11.2-3c3.5-1.9,6.6-4.3,9.3-7.2c2.7-2.9,5.1-6,7-9.4c1.9-3.4,3.3-6.5,4.2-9.5
		h17l-0.1,29h29.4v17.8l-29.4,0.6c-0.1,10.9-0.1,20-0.2,27.2c0,7.2-0.1,13-0.1,17.3c0,4.3-0.1,7.4-0.1,9.3c0,1.8,0,2.9,0,3.2
		c0,2.7,0.2,5.4,0.5,8.1c0.3,2.7,1,5.1,2,7.2s2.4,3.9,4.3,5.2c1.8,1.3,4.2,2,7.2,2c1,0,2.2-0.2,3.7-0.5c1.5-0.3,3.1-0.9,5-1.9
		s3.8-2.4,5.9-4.2c2.1-1.9,4.2-4.3,6.4-7.4L1455,250c-4.2,6.2-8.4,10.9-12.6,14.3c-4.2,3.4-8.2,5.9-12.1,7.4
		c-3.8,1.6-7.3,2.5-10.5,2.8c-3.2,0.3-5.8,0.5-7.9,0.5c-2.6,0-5.2-0.2-8-0.6c-2.7-0.4-5.5-1.2-8.1-2.3c-2.7-1.1-5.2-2.7-7.6-4.8
		c-2.4-2.1-4.5-4.8-6.3-8.1c-1.8-3.3-3.3-7.3-4.3-12c-1.1-4.7-1.6-10.2-1.6-16.6l0.3-55.7l-15.8,0.2V155.8z"/>
</g>
<path fill="#166DB7" d="M366.8,229.9c0.9-0.9,1.7-1.7,2.4-2.4c0.1-0.1,0.2-0.1,0.2-0.2c15.5-15.5,15.5-40.6,0-56.1
	c-1.5-1.5-3.1-2.8-4.7-4l0-0.1c0,0-21-13.9-19.1-50.5c0.1-1.3,0.1-2.4,0-3.4c0-0.1,0-0.2,0-0.3c0-21.9-17.8-39.7-39.7-39.7
	c-2.1,0-4.1,0.2-6.1,0.5l0,0c0,0-24.6,5-49.3-22.2c-0.9-0.9-1.7-1.7-2.4-2.4c-0.1-0.1-0.1-0.2-0.2-0.2c-15.5-15.5-40.6-15.5-56.1,0
	c-1.5,1.5-2.8,3.1-4,4.7l-0.1,0c0,0-13.9,21-50.6,19.1c-1.3-0.1-2.4-0.1-3.4,0c-0.1,0-0.2,0-0.3,0c-21.9,0-39.7,17.8-39.7,39.7
	c0,2.1,0.2,4.1,0.5,6.1l0,0c0,0,5,24.6-22.2,49.3c-0.9,0.9-1.7,1.7-2.4,2.4c-0.1,0.1-0.2,0.1-0.2,0.2c-15.5,15.5-15.5,40.6,0,56.1
	c1.5,1.5,3.1,2.8,4.7,4l0,0.1c0,0,21,13.9,19.1,50.6c-0.1,1.3-0.1,2.4,0,3.4c0,0.1,0,0.2,0,0.3c0,21.9,17.8,39.7,39.7,39.7
	c2.1,0,4.1-0.2,6.1-0.5l0,0c0,0,24.6-5,49.3,22.2c0.9,0.9,1.7,1.7,2.4,2.4c0.1,0.1,0.1,0.2,0.2,0.2c15.5,15.5,40.6,15.5,56.1,0
	c1.5-1.5,2.8-3.1,4-4.7l0.1,0c0,0,13.9-21,50.5-19.1c1.3,0.1,2.4,0.1,3.4,0c0.1,0,0.2,0,0.3,0c21.9,0,39.7-17.8,39.7-39.7
	c0-2.1-0.2-4.1-0.5-6.1l0,0C344.6,279.1,339.5,254.5,366.8,229.9z M341.9,222c-0.1,0.1-0.1,0.1-0.2,0.2c-0.5,0.6-1.2,1.3-2,2
	c-22.2,20.1-18.1,40.2-18.1,40.2l0,0c0.3,1.6,0.4,3.3,0.4,5c0,17.9-14.5,32.4-32.4,32.4c-0.1,0-0.2,0-0.2,0c-0.8,0.1-1.7,0.1-2.8,0
	c-30-1.5-41.3,15.6-41.3,15.6l0,0c-1,1.3-2,2.6-3.2,3.8c-12.7,12.7-33.2,12.7-45.8,0c-0.1-0.1-0.1-0.1-0.2-0.2c-0.6-0.5-1.3-1.2-2-2
	c-20.1-22.2-40.2-18.1-40.2-18.1l0,0c-1.6,0.3-3.3,0.4-5,0.4c-17.9,0-32.4-14.5-32.4-32.4c0-0.1,0-0.2,0-0.2c-0.1-0.8-0.1-1.7,0-2.8
	c1.5-30-15.6-41.3-15.6-41.3l0,0c-1.3-1-2.6-2-3.8-3.2c-12.7-12.7-12.7-33.2,0-45.8c0.1-0.1,0.1-0.1,0.2-0.2c0.5-0.6,1.2-1.3,2-2
	c22.2-20.1,18.1-40.2,18.1-40.2l0,0c-0.3-1.6-0.4-3.3-0.4-5c0-17.9,14.5-32.4,32.4-32.4c0.1,0,0.2,0,0.2,0c0.8-0.1,1.7-0.1,2.8,0
	c30,1.5,41.3-15.6,41.3-15.6l0,0c1-1.3,2-2.6,3.2-3.8c12.7-12.7,33.2-12.7,45.8,0c0.1,0.1,0.1,0.1,0.2,0.2c0.6,0.5,1.3,1.2,2,2
	c20.1,22.2,40.2,18.1,40.2,18.1l0,0c1.6-0.3,3.3-0.4,5-0.4c17.9,0,32.4,14.5,32.4,32.4c0,0.1,0,0.2,0,0.2c0.1,0.8,0.1,1.7,0,2.8
	c-1.5,30,15.6,41.3,15.6,41.3l0,0c1.3,1,2.6,2,3.8,3.2C354.5,188.9,354.5,209.4,341.9,222z"/>
<path fill="#8EC13F" d="M221.2,115.5h-5.2c-7.8,0-14.2,6.4-14.2,14.2v141.1c0,7.8,6.4,14.2,14.2,14.2h5.2c7.8,0,14.2-6.4,14.2-14.2
	V129.8C235.5,121.9,229.1,115.5,221.2,115.5z"/>
<path fill="#00A14B" d="M263.5,141.3h-5.2c-7.8,0-14.2,6.4-14.2,14.2V245c0,7.8,6.4,14.2,14.2,14.2h5.2c7.8,0,14.2-6.4,14.2-14.2
	v-89.4C277.7,147.7,271.3,141.3,263.5,141.3z"/>
<path fill="#00A14B" d="M179,141.3h-5.2c-7.8,0-14.2,6.4-14.2,14.2V245c0,7.8,6.4,14.2,14.2,14.2h5.2c7.8,0,14.2-6.4,14.2-14.2
	v-89.4C193.2,147.7,186.8,141.3,179,141.3z"/>
<path fill="#8EC13F" d="M136.7,172.3h-5.2c-7.8,0-14.2,6.4-14.2,14.2v22.6c0,7.8,6.4,14.2,14.2,14.2h5.2c7.8,0,14.2-6.4,14.2-14.2
	v-22.6C151,178.7,144.6,172.3,136.7,172.3z"/>
<path fill="#8EC13F" d="M305.8,172.3h-5.2c-7.8,0-14.2,6.4-14.2,14.2v22.6c0,7.8,6.4,14.2,14.2,14.2h5.2c7.8,0,14.2-6.4,14.2-14.2
	v-22.6C320,178.7,313.6,172.3,305.8,172.3z"/>
</svg>
